<svg id="logo" xmlns="http://www.w3.org/2000/svg" xmlns:xlink="http://www.w3.org/1999/xlink" width="227.278" height="45" viewBox="0 0 227.278 45">
  <defs>
    <clipPath id="clip-path">
      <rect id="사각형_150" data-name="사각형 150" width="227.278" height="45" fill="none"/>
    </clipPath>
  </defs>
  <g id="그룹_139" data-name="그룹 139" clip-path="url(#clip-path)">
    <path id="패스_451" data-name="패스 451" d="M129.046,84.538a16.594,16.594,0,0,0,5.982,2.736,18.539,18.539,0,0,0,3.134.5v15.813c0,2.917-1.462,3.569-1.462,3.569l-7.653,3.735-7.653-3.735s-1.463-.652-1.463-3.569V87.772a18.536,18.536,0,0,0,3.134-.5,16.594,16.594,0,0,0,5.982-2.736m0-.873-.42.318A15.818,15.818,0,0,1,122.9,86.6a17.841,17.841,0,0,1-3.016.479l-.648.045v16.463a5.672,5.672,0,0,0,.855,3.275,2.719,2.719,0,0,0,1,.923l7.648,3.732.306.149.306-.149L137,107.783a2.722,2.722,0,0,0,1-.923,5.672,5.672,0,0,0,.855-3.275V87.122l-.648-.045a17.847,17.847,0,0,1-3.016-.479,15.817,15.817,0,0,1-5.728-2.615Z" transform="translate(-106.546 -74.762)" fill="#231815"/>
    <path id="패스_452" data-name="패스 452" d="M171.032,137.162a1.863,1.863,0,0,1-.118-.659v-.195h.415v-.322h-1.214v.322h.43v.195a1.77,1.77,0,0,1-.126.67,1.5,1.5,0,0,1-.462.581l-.01.008.257.211.006.005.007,0a1.489,1.489,0,0,0,.331-.338,1.3,1.3,0,0,0,.184-.342,1.117,1.117,0,0,0,.171.326,1.431,1.431,0,0,0,.3.313l.007.005.231-.215.009-.008-.009-.007a1.265,1.265,0,0,1-.41-.545" transform="translate(-151.862 -121.515)" fill="#231815"/>
    <rect id="사각형_122" data-name="사각형 122" width="0.35" height="2.782" transform="translate(20.277 14.275)" fill="#231815"/>
    <path id="패스_453" data-name="패스 453" d="M181.737,135.011h-.405v.341h.405v1.606h.347V134.18h-.347Z" transform="translate(-162.035 -119.901)" fill="#231815"/>
    <path id="패스_454" data-name="패스 454" d="M200.775,137.545a2.866,2.866,0,0,1-.328.022h-.224v-1.292h.674v-.318h-1.043V137.9l.5,0c.107,0,.234-.007.379-.022a2.2,2.2,0,0,0,.348-.057h0V137.5l-.013,0a2.92,2.92,0,0,1-.3.047" transform="translate(-178.587 -121.489)" fill="#231815"/>
    <path id="패스_455" data-name="패스 455" d="M213.091,135.123h-.248v-.978h-.353v2.779h.353v-1.464h.248v1.464h.35v-2.782h-.35Z" transform="translate(-189.878 -119.868)" fill="#231815"/>
    <path id="패스_456" data-name="패스 456" d="M259.052,136.62l-.007.107c-.013.2-.027.41-.056.579l0,.012h.373v-.009c.031-.2.048-.458.063-.706,0-.02,0-.039,0-.059s0-.041,0-.061c.019-.291.03-.561.035-.8v-.011h-2.046V136h1.655c0,.187-.008.4-.024.623" transform="translate(-230.027 -121.232)" fill="#231815"/>
    <path id="패스_457" data-name="패스 457" d="M256.718,147.076v-.962h-.363v.962h-.322v-.962h-.363v.962h-.621v.325H257.7v-.325Z" transform="translate(-227.908 -130.566)" fill="#231815"/>
    <path id="패스_458" data-name="패스 458" d="M245.225,134.094h-.37v1.7h.37v-.661h.373V134.8h-.373Z" transform="translate(-218.798 -119.825)" fill="#231815"/>
    <path id="패스_459" data-name="패스 459" d="M228.554,133.87h-.6v-.292h-.379v.292h-.629v.309h1.608Z" transform="translate(-202.796 -119.363)" fill="#231815"/>
    <path id="패스_460" data-name="패스 460" d="M228.975,140.532a.494.494,0,0,0,0-.817.894.894,0,0,0-1.035,0,.495.495,0,0,0,0,.817.9.9,0,0,0,1.035,0m-.878-.4a.226.226,0,0,1,.1-.186.474.474,0,0,1,.518,0,.225.225,0,0,1,.1.186.223.223,0,0,1-.1.183.475.475,0,0,1-.518,0,.223.223,0,0,1-.1-.183" transform="translate(-203.491 -124.7)" fill="#231815"/>
    <rect id="사각형_123" data-name="사각형 123" width="0.371" height="2.011" transform="translate(17.169 14.279)" fill="#231815"/>
    <path id="패스_461" data-name="패스 461" d="M144.272,135.948a.726.726,0,0,0,0-1.049.781.781,0,0,0-1.081,0,.726.726,0,0,0,0,1.049.781.781,0,0,0,1.081,0m-.932-.524a.4.4,0,0,1,.116-.285.381.381,0,0,1,.553,0,.416.416,0,0,1,0,.572.385.385,0,0,1-.553,0,.4.4,0,0,1-.116-.287" transform="translate(-127.754 -120.35)" fill="#231815"/>
    <path id="패스_462" data-name="패스 462" d="M147.913,151.137h-.378v.978h1.89v-.326h-1.512Z" transform="translate(-131.835 -135.053)" fill="#231815"/>
    <path id="패스_463" data-name="패스 463" d="M230.847,152.409h1.469v.55h.383v-.872h-1.851Z" transform="translate(-206.282 -135.902)" fill="#231815"/>
    <path id="패스_464" data-name="패스 464" d="M188.473,172.415v4.742h1.57v-3.173h.9a.7.7,0,0,1,.771.77v.323h1.5v-1.093a1.63,1.63,0,0,0-1.686-1.569Z" transform="translate(-168.417 -154.067)" fill="#231815"/>
    <path id="패스_465" data-name="패스 465" d="M219.051,204.461h3.174v.9a.7.7,0,0,1-.772.769h-.32v1.507h1.093a1.631,1.631,0,0,0,1.571-1.686v-3.06h-4.745Z" transform="translate(-195.741 -181.302)" fill="#231815"/>
    <path id="패스_466" data-name="패스 466" d="M193.819,232.7h-1.568v3.175h-.9a.7.7,0,0,1-.77-.771v-.321h-1.506v1.093a1.631,1.631,0,0,0,1.685,1.569h3.06Z" transform="translate(-168.954 -207.937)" fill="#231815"/>
    <path id="패스_467" data-name="패스 467" d="M158.629,207.638h4.747v-1.571H160.2v-.9a.7.7,0,0,1,.774-.77h.319v-1.507H160.2a1.631,1.631,0,0,0-1.57,1.683Z" transform="translate(-141.748 -181.301)" fill="#231815"/>
    <path id="패스_468" data-name="패스 468" d="M150.831,281.917l-.383-.182-.93,1.961-.021.045.383.182.93-1.96Z" transform="translate(-133.588 -251.754)" fill="#231815"/>
    <path id="패스_469" data-name="패스 469" d="M159.861,286.237l-.357-.169-.635,1.339.026-1.575v-.052l-.455-.216-.93,1.96-.021.045.357.169.645-1.36-.025,1.6v.052l.445.211.93-1.961Z" transform="translate(-140.73 -255.175)" fill="#231815"/>
    <path id="패스_470" data-name="패스 470" d="M176.222,296.657l-.383-.182-.631,1.33c-.124.26-.2.357-.37.277-.116-.055-.119-.134-.012-.369l.022-.05.031-.072-.391-.185-.035.073a.992.992,0,0,0-.138.511.6.6,0,0,0,.35.432.776.776,0,0,0,.333.084.526.526,0,0,0,.171-.028.63.63,0,0,0,.354-.351l.677-1.427Z" transform="translate(-155.764 -264.926)" fill="#231815"/>
    <path id="패스_471" data-name="패스 471" d="M187.281,302.412l-.021.045,1.119.531.167-.352-.737-.349.236-.5.67.318.167-.353-.669-.317.214-.452.721.342.167-.352-1.1-.524Z" transform="translate(-167.333 -268.478)" fill="#231815"/>
    <path id="패스_472" data-name="패스 472" d="M216.89,299.475l-.382.184.6,1.26a.681.681,0,0,1,.1.4c-.016.071-.063.12-.163.168a.251.251,0,0,1-.233.022.682.682,0,0,1-.25-.327l-.6-1.26-.382.183.6,1.25a1.022,1.022,0,0,0,.442.519.542.542,0,0,0,.231.051.837.837,0,0,0,.362-.094.67.67,0,0,0,.405-.435,1.02,1.02,0,0,0-.128-.67Z" transform="translate(-192.637 -267.606)" fill="#231815"/>
    <path id="패스_473" data-name="패스 473" d="M233.135,291.3l.641,1.336-1.248-1.045-.454.218.959,2,.356-.171-.65-1.357,1.228,1.027.04.033.444-.213-.96-2Z" transform="translate(-207.378 -260.146)" fill="#231815"/>
    <rect id="사각형_124" data-name="사각형 124" width="0.424" height="2.22" transform="translate(26.516 30.741) rotate(-25.613)" fill="#231815"/>
    <path id="패스_474" data-name="패스 474" d="M256.137,279.426l-.017-.107-.4.19.3,1.61-1.056-1.25-.41.2,1.5,1.678.04.046.392-.188Z" transform="translate(-227.474 -249.595)" fill="#231815"/>
    <path id="패스_475" data-name="패스 475" d="M76.316,60.923a15.32,15.32,0,0,1,8.606,2.629A15.443,15.443,0,0,1,90.5,70.325a15.37,15.37,0,0,1-1.419,14.6A15.436,15.436,0,0,1,82.307,90.5a15.378,15.378,0,0,1-14.6-1.419,15.464,15.464,0,0,1-4.158-4.158,15.389,15.389,0,0,1,12.766-24m0-.7a16.019,16.019,0,0,0-9,2.749,16.131,16.131,0,0,0-5.829,7.079,16.069,16.069,0,0,0,1.484,15.259,16.133,16.133,0,0,0,7.079,5.828,16.073,16.073,0,0,0,15.26-1.483,16.132,16.132,0,0,0,5.829-7.078,16.069,16.069,0,0,0-1.484-15.259,16.136,16.136,0,0,0-7.078-5.829,15.986,15.986,0,0,0-6.263-1.265" transform="translate(-53.815 -53.818)" fill="#231815"/>
    <path id="패스_476" data-name="패스 476" d="M113.234,348.211l-.336-.253-.392.521-.475-.357-.222.3.475.357-.467.621-.008.011.336.253,1.081-1.436Z" transform="translate(-99.911 -310.93)" fill="#231815"/>
    <path id="패스_477" data-name="패스 477" d="M96.161,338.341a1.731,1.731,0,0,0,.564.069,1.22,1.22,0,0,0,.406-.066,1.169,1.169,0,0,0,.06.38,1.725,1.725,0,0,0,.194.424l.006.009.393-.134-.011-.015a1.2,1.2,0,0,1-.219-.534.654.654,0,0,1,.084-.444l.027-.035.458.345.226-.3-1.263-.95-.011-.008-.226.3.458.345-.027.036a.693.693,0,0,1-.433.232,1.662,1.662,0,0,1-.708-.083l-.019-.006.033.434Z" transform="translate(-85.89 -301.21)" fill="#231815"/>
    <path id="패스_478" data-name="패스 478" d="M95.24,354.912a2.238,2.238,0,0,0-1.389-1.044.515.515,0,0,0-.514.174.507.507,0,0,0-.024.541,2.3,2.3,0,0,0,1.389,1.043.849.849,0,0,0,.116.009.472.472,0,0,0,.4-.182.514.514,0,0,0,.027-.542m-.4.266c-.06.08-.18.068-.271.044a1.414,1.414,0,0,1-.461-.247,1.389,1.389,0,0,1-.365-.377c-.067-.114-.077-.209-.029-.272.1-.135.389-.056.732.2s.5.515.395.649" transform="translate(-83.324 -316.205)" fill="#231815"/>
    <path id="패스_479" data-name="패스 479" d="M142.549,364.443l-.006.012.379.182.772-1.613.006-.012-.379-.181Z" transform="translate(-127.375 -324.22)" fill="#231815"/>
    <path id="패스_480" data-name="패스 480" d="M124.047,357.215a2.121,2.121,0,0,0,.482-.046,1.206,1.206,0,0,0,.416-.167,1.81,1.81,0,0,0,.152.383,1.4,1.4,0,0,0,.259.355l.007.007.372-.186-.014-.013a1.2,1.2,0,0,1-.294-.42.719.719,0,0,1,0-.627l.007-.015.52.249.162-.34-1.426-.682-.012-.006-.162.339.517.248-.007.015a.778.778,0,0,1-.486.422,1.975,1.975,0,0,1-.627.07h-.019l.135.415Z" transform="translate(-110.71 -317.854)" fill="#231815"/>
    <path id="패스_481" data-name="패스 481" d="M125.039,371.573l-.162.339,1.658.794-.3.637-.006.012.379.181.467-.976.006-.012-2.026-.969Z" transform="translate(-111.588 -332.032)" fill="#231815"/>
    <path id="패스_482" data-name="패스 482" d="M180.2,374.912a1.471,1.471,0,0,0,.259.339,1.792,1.792,0,0,0,.444.331l.009,0,.276-.291-.016-.008a1.51,1.51,0,0,1-.508-.417.9.9,0,0,1-.17-.663l.023-.222-.442-.046-.023.222a.957.957,0,0,1-.313.652,1.977,1.977,0,0,1-.6.368l-.017.007.267.324.009,0a2.259,2.259,0,0,0,.448-.252,1.544,1.544,0,0,0,.355-.344" transform="translate(-160.059 -334.146)" fill="#231815"/>
    <path id="패스_483" data-name="패스 483" d="M184.046,390.624a1.792,1.792,0,0,0-.882.091.53.53,0,0,0-.351.419.516.516,0,0,0,.258.481,1.837,1.837,0,0,0,.845.264c.1.01.2.015.291.015.554,0,.907-.188.941-.519.04-.383-.393-.679-1.1-.752m.434.885a1.432,1.432,0,0,1-.525.026,1.406,1.406,0,0,1-.511-.135c-.083-.044-.179-.119-.169-.218s.12-.155.21-.18a1.154,1.154,0,0,1,.306-.035,2.079,2.079,0,0,1,.221.012,1.432,1.432,0,0,1,.509.132c.084.044.182.118.171.221s-.121.152-.213.177" transform="translate(-163.357 -349.042)" fill="#231815"/>
    <path id="패스_484" data-name="패스 484" d="M196.94,375.22l-.594-.061-.04.391.594.061-.088.848v.013l.418.044.182-1.765v-.014l-.418-.043Z" transform="translate(-175.416 -334.821)" fill="#231815"/>
    <rect id="사각형_125" data-name="사각형 125" width="0.421" height="1.584" transform="matrix(0.996, -0.088, 0.088, 0.996, 24.914, 39.729)" fill="#231815"/>
    <path id="패스_485" data-name="패스 485" d="M219.493,389.8l-.014-.152,1.717-.156h.014l-.071-.8-2.16.192h-.014l.03.338,1.727-.153.014.152-1.714.152h-.014l.072.807,2.234-.2h.013l-.03-.341Z" transform="translate(-195.664 -347.329)" fill="#231815"/>
    <path id="패스_486" data-name="패스 486" d="M214.011,375.879a1.631,1.631,0,0,0,.325.251,1.778,1.778,0,0,0,.46.193l.009,0,.219-.338-.019,0a1.483,1.483,0,0,1-.517-.234.733.733,0,0,1-.319-.545l-.022-.246-.442.039.022.247a.829.829,0,0,1-.2.615,1.774,1.774,0,0,1-.515.411l-.017.01.324.271.008,0a2.323,2.323,0,0,0,.408-.3,1.149,1.149,0,0,0,.279-.362" transform="translate(-190.326 -335.056)" fill="#231815"/>
    <path id="패스_487" data-name="패스 487" d="M277,378.382l-.267-.587-.006-.012-.386.176.418.917.006.012,2.105-.96.012-.005-.15-.33Z" transform="translate(-246.933 -337.411)" fill="#231815"/>
    <path id="패스_488" data-name="패스 488" d="M271.656,357.876l-.152-.333-.457.209v-.006c-.023-.1-.065-.285-.121-.5-.048-.179-.163-.579-.207-.676l-.006-.012-2.145.978-.012.006.153.336,1.715-.782c.082.246.2.662.238.831l-1.886.86-.012.006.152.333,2.729-1.244Z" transform="translate(-239.976 -318.615)" fill="#231815"/>
    <path id="패스_489" data-name="패스 489" d="M310.888,356.862l-1.507,1.091-.366-.507-.354.257.583.806,1.861-1.346Z" transform="translate(-275.815 -318.887)" fill="#231815"/>
    <path id="패스_490" data-name="패스 490" d="M298.478,339.363l.5-.364.453.627.341-.246L298.5,337.62l-.008-.011-.34.246.251.347-.5.364-.149-.206-1.212.877.889,1.229.008.011,1.212-.877Zm-.919.565-.46-.635.534-.386.46.636Zm.559-1.062.5-.364.143.2-.5.364Z" transform="translate(-264.984 -301.682)" fill="#231815"/>
    <path id="패스_491" data-name="패스 491" d="M20.019,218.947a3.89,3.89,0,0,0,1.058-4.288,2.976,2.976,0,0,0-1.333,2.5,2.964,2.964,0,0,0-2.02-1.981,3.89,3.89,0,0,0,2.3,3.771" transform="translate(-15.837 -191.816)" fill="#231815"/>
    <path id="패스_492" data-name="패스 492" d="M28,249.451a2.98,2.98,0,0,0-.751,2.731,2.979,2.979,0,0,0-2.409-1.492,3.892,3.892,0,0,0,3.069,3.176A3.89,3.89,0,0,0,28,249.451" transform="translate(-22.198 -222.906)" fill="#231815"/>
    <path id="패스_493" data-name="패스 493" d="M42.963,285.984a2.98,2.98,0,0,0-2.633-1.044,3.892,3.892,0,0,0,3.58,2.588,3.893,3.893,0,0,0-.688-4.364,2.979,2.979,0,0,0-.259,2.821" transform="translate(-36.038 -253.03)" fill="#231815"/>
    <path id="패스_494" data-name="패스 494" d="M372.953,218.947a3.89,3.89,0,0,1-1.058-4.288,2.977,2.977,0,0,1,1.333,2.5,2.964,2.964,0,0,1,2.02-1.981,3.89,3.89,0,0,1-2.3,3.771" transform="translate(-332.133 -191.816)" fill="#231815"/>
    <path id="패스_495" data-name="패스 495" d="M363.161,249.451a2.979,2.979,0,0,1,.752,2.731,2.978,2.978,0,0,1,2.409-1.492,3.892,3.892,0,0,1-3.069,3.176,3.89,3.89,0,0,1-.092-4.415" transform="translate(-323.963 -222.906)" fill="#231815"/>
    <path id="패스_496" data-name="패스 496" d="M346.709,285.984a2.98,2.98,0,0,1,2.633-1.044,3.892,3.892,0,0,1-3.58,2.588,3.892,3.892,0,0,1,.688-4.364,2.98,2.98,0,0,1,.259,2.821" transform="translate(-308.632 -253.03)" fill="#231815"/>
    <path id="패스_497" data-name="패스 497" d="M162.99,379.118a.429.429,0,1,1-.429-.429.429.429,0,0,1,.429.429" transform="translate(-144.879 -338.391)" fill="#231815"/>
    <path id="패스_498" data-name="패스 498" d="M253.555,379.118a.429.429,0,1,1-.429-.429.429.429,0,0,1,.429.429" transform="translate(-225.806 -338.391)" fill="#231815"/>
    <path id="패스_499" data-name="패스 499" d="M22.5,0A22.5,22.5,0,1,0,45,22.5,22.5,22.5,0,0,0,22.5,0m0,44.087A21.588,21.588,0,1,1,44.09,22.5,21.589,21.589,0,0,1,22.5,44.087" fill="#231815"/>
    <path id="패스_500" data-name="패스 500" d="M27.844,159.613l-.09.341.012,0a.506.506,0,0,1,.283.271.775.775,0,0,1,.017.481l0,.013.356.094.149-.564,1.887.5.013,0,.111-.419-2.722-.719Z" transform="translate(-24.801 -142.628)" fill="#231815"/>
    <path id="패스_501" data-name="패스 501" d="M35.849,136.492a2.758,2.758,0,0,0-1.394-.581.968.968,0,0,0-1.039.618.974.974,0,0,0,1.782.777.9.9,0,0,0,.006-.69,1.36,1.36,0,0,1,.409.248.519.519,0,0,1,.192.608.532.532,0,0,1-.59.322l-.011,0-.151.381.014,0a.816.816,0,0,0,.229.031.933.933,0,0,0,.87-.581.969.969,0,0,0-.316-1.134m-1,.591a.465.465,0,0,1-.283.273.627.627,0,0,1-.434-.022.512.512,0,0,1-.343-.671.473.473,0,0,1,.283-.283.52.52,0,0,1,.176-.03.69.69,0,0,1,.254.052.626.626,0,0,1,.331.279.467.467,0,0,1,.017.4" transform="translate(-29.797 -121.445)" fill="#231815"/>
    <path id="패스_502" data-name="패스 502" d="M49.4,113.5l-.338-.19-.179.318-1.688-.95-.012-.007-.215.374L48,115.034l0,0,.41.231.6-1.071.442.249.211-.375-.442-.248Zm-.728.5-.386.686-.7-1.3Z" transform="translate(-41.972 -100.686)" fill="#231815"/>
    <path id="패스_503" data-name="패스 503" d="M57.489,97.732l-.011-.008-.206.286.01.008a.5.5,0,0,1,.167.355.776.776,0,0,1-.156.455l-.008.011.3.216.342-.473,1.594,1.15.254-.352Z" transform="translate(-51.177 -87.325)" fill="#231815"/>
    <path id="패스_504" data-name="패스 504" d="M102.7,49.572l0-.012-.442.113.005.014a3.3,3.3,0,0,1,.045,1.972l0,.013.455.11,0-.013a2.4,2.4,0,0,0,.077-.428l.98,1.583.4-.245L102.9,50.561a4.948,4.948,0,0,0-.2-.989" transform="translate(-91.371 -44.286)" fill="#231815"/>
    <path id="패스_505" data-name="패스 505" d="M112.2,45.56l.011-.007-.22-.354-1.664,1.031-.011.007.219.354Z" transform="translate(-98.578 -40.389)" fill="#231815"/>
    <path id="패스_506" data-name="패스 506" d="M121.18,60.2l-1.921,1.19-.011.007.221.358,1.921-1.19.011-.007Z" transform="translate(-106.558 -53.796)" fill="#231815"/>
    <path id="패스_507" data-name="패스 507" d="M191.218,41.108c-.006-.01-.13-.184-.22-.291a3.812,3.812,0,0,0-.277-.284l-.005,0-.246.177.248.308a3.026,3.026,0,0,1,.2.309l0,.014.3-.223Z" transform="translate(-170.2 -36.217)" fill="#231815"/>
    <path id="패스_508" data-name="패스 508" d="M181.4,41.176l0,0-.248.152.008.008a1.078,1.078,0,0,1,.282.411l0,.013.315-.208,0-.007a1.043,1.043,0,0,0-.352-.367" transform="translate(-161.873 -36.792)" fill="#231815"/>
    <path id="패스_509" data-name="패스 509" d="M171.4,44.784a1.6,1.6,0,0,1-.219.7l-.006.009.351.122,0-.007a2.39,2.39,0,0,0,.206-.768v-.008l-.335-.056Z" transform="translate(-152.958 -40.008)" fill="#231815"/>
    <path id="패스_510" data-name="패스 510" d="M171.271,36.406l.06.31,2.451-.472.009,0-.06-.309-2.451.472Z" transform="translate(-153.045 -32.108)" fill="#231815"/>
    <path id="패스_511" data-name="패스 511" d="M170.162,20.373l.045.235-.883.17-.009,0,.168.873,0,.009,2.116-.408.009,0-.168-.873,0-.009-.892.172-.045-.235.974-.188.009,0-.057-.3-.978.188-.037-.34-.4.056.088.352-.966.186-.009,0,.058.3Zm.741.4.259-.05.06.31-.259.05Zm-.921.177.06.31-.278.054L169.7,21Zm.385.247-.06-.31.282-.054.06.31Z" transform="translate(-151.128 -17.576)" fill="#231815"/>
    <path id="패스_512" data-name="패스 512" d="M159.009,24.128a3.541,3.541,0,0,0,.708-.965l0-.009-.35-.157,0,.01a2.031,2.031,0,0,1-.647.87l-.008.007.289.25Z" transform="translate(-141.824 -20.551)" fill="#231815"/>
    <path id="패스_513" data-name="패스 513" d="M161.188,30.046l0-.018,0-.009-.348-.1,0,.01a2.488,2.488,0,0,1-.717,1.271l-.008.007.3.258.006-.008.015-.017a1.778,1.778,0,0,0,.239-.328l.308,1.6,0,.009.369-.071-.384-1.993a2.108,2.108,0,0,0,.218-.61" transform="translate(-143.082 -26.734)" fill="#231815"/>
    <path id="패스_514" data-name="패스 514" d="M178.845,45.013l-.371-.028,0,.016a.3.3,0,0,1,0,.2,1.364,1.364,0,0,1-.486.14l-.057.009c-.1.019-.214.04-.253-.108l-.036-.21a1.415,1.415,0,0,1-.014-.17c0-.009,0-.015,0-.016v-.008l-.391.041.057.249a.083.083,0,0,1,0,.009,1.428,1.428,0,0,0,.121.452c.046.09.163.12.3.12a2.743,2.743,0,0,0,.519-.074l.109-.022c.261-.05.392-.092.473-.258a.745.745,0,0,0,.027-.338Z" transform="translate(-158.377 -40.069)" fill="#231815"/>
    <path id="패스_515" data-name="패스 515" d="M231.323,19.691l.007.007.224-.272-.006-.006a2.19,2.19,0,0,0-.5-.394l-.007,0-.215.291.009,0a1.756,1.756,0,0,1,.487.373" transform="translate(-206.264 -16.998)" fill="#231815"/>
    <path id="패스_516" data-name="패스 516" d="M225.311,38.2l-.289-.205,0,.009a3.265,3.265,0,0,1-.819,1.052l-.008.006.332.3.006-.006a4.747,4.747,0,0,0,.779-1.147Z" transform="translate(-200.333 -33.949)" fill="#231815"/>
    <path id="패스_517" data-name="패스 517" d="M228.914,28.088l.007.01.214-.284-.014-.014a1.812,1.812,0,0,0-.474-.374l-.006,0-.219.294.01,0a1.44,1.44,0,0,1,.483.367" transform="translate(-204.114 -24.504)" fill="#231815"/>
    <path id="패스_518" data-name="패스 518" d="M234.763,38.562l-1.347-.255.056-.21-.409-.09v.012a2.454,2.454,0,0,1-.131.733.82.82,0,0,1-.468.549l-.006,0-.009.006.284.256,0,0,.006,0,.006,0a.894.894,0,0,0,.423-.426l1.426.27-.09.478.357.068.259-1.367a.792.792,0,0,1,.052-.158.057.057,0,0,0,0-.011v-.008l-.384-.1Zm-.107.544-1.367-.259.069-.243,1.345.255Z" transform="translate(-207.713 -33.962)" fill="#231815"/>
    <path id="패스_519" data-name="패스 519" d="M235.926,21.32l.025-.133L236,21l-.4-.088-.026.2-.025.133-1.125-.213-.057.3.947.18-.233.066.095.213-.873-.165-.049.258.184.035a.714.714,0,0,1-.491.485l-.015,0,.167.245,0,.005h.006a1.117,1.117,0,0,0,.655-.673l.131.025c-.007.058-.079.388-.139.407a.339.339,0,0,1-.179-.03l-.007,0-.012,0,.02.277v.006l.008,0a.575.575,0,0,0,.4,0,1.39,1.39,0,0,0,.259-.724l.129.258-.125.657.353.067.127-.673.508-.457-.148-.135.925.175.057-.3Zm-.042.3-.274.318-.15-.4Z" transform="translate(-209.045 -18.687)" fill="#231815"/>
    <path id="패스_520" data-name="패스 520" d="M252.24,30.792l.194-.072-.16-.251,0-.007-.007,0a2.392,2.392,0,0,1-.244.087,1.912,1.912,0,0,1-.453.045h-.023l-.026.182-.076.4-.116.012.076.31.657-.089a1.862,1.862,0,0,0,.2.338l.005,0,.29-.19-.008-.008a1.108,1.108,0,0,1-.3-.765m-.271.36-.212.023.06-.317a.809.809,0,0,0,.126-.018,1.765,1.765,0,0,0,.025.312" transform="translate(-224.578 -27.22)" fill="#231815"/>
    <path id="패스_521" data-name="패스 521" d="M286.976,42.146l.364-.616c.087-.14.178-.254.182-.261l-.4-.268c-.015.033-.1.222-.16.335l-.352.595-.408-.241.35-.591a2.648,2.648,0,0,1,.194-.273l-.391-.278c-.015.033-.1.216-.162.329l-.354.6-.419-.248.319-.54a1.3,1.3,0,0,1,.142-.2l-.4-.275-.119.256-.317.536-.477-.282-.194.329.478.282-.978,1.653,2.356,1.393.186-.315-1.979-1.17.791-1.339.419.247-.577.976,1.135.671.577-.976.6.352.194-.329Zm-.944.768-.408-.241.386-.654.408.241Z" transform="translate(-253.665 -35.933)" fill="#231815"/>
    <path id="패스_522" data-name="패스 522" d="M344.491,96.127l-.211-.282-.011.007a.506.506,0,0,1-.389.053.775.775,0,0,1-.388-.286l-.008-.011-.3.221.349.467-1.575,1.176.259.347,2.256-1.685Z" transform="translate(-305.574 -85.434)" fill="#231815"/>
    <path id="패스_523" data-name="패스 523" d="M352.294,113.783a2.754,2.754,0,0,0,1.322-.732.968.968,0,0,0,.161-1.2.931.931,0,0,0-.579-.446.973.973,0,0,0-.725.111.936.936,0,0,0-.411,1.25.9.9,0,0,0,.537.433,1.356,1.356,0,0,1-.449.167.519.519,0,0,1-.6-.227.532.532,0,0,1,.115-.662l.009-.007-.205-.355-.012.008a.933.933,0,0,0-.251,1.2.92.92,0,0,0,.843.478,1.465,1.465,0,0,0,.242-.021m.407-1.87a.656.656,0,0,1,.325-.093.5.5,0,0,1,.1.01.5.5,0,0,1,.361.628.606.606,0,0,1-.284.323.506.506,0,1,1-.5-.868" transform="translate(-313.727 -99.527)" fill="#231815"/>
    <path id="패스_524" data-name="패스 524" d="M361.352,130.617a4.759,4.759,0,0,1,1.144.163l0,0,.373-.16-.731-1.7-.374.16.537,1.251a8.484,8.484,0,0,0-1.235-.152,3.763,3.763,0,0,0-1.334.195l-.013,0,.193.449.012-.006a3.787,3.787,0,0,1,1.423-.2" transform="translate(-321.444 -115.198)" fill="#231815"/>
    <path id="패스_525" data-name="패스 525" d="M370.128,151.887a.974.974,0,0,0-1.884.48.9.9,0,0,0,.418.549,1.342,1.342,0,0,1-.475.055.519.519,0,0,1-.525-.362.532.532,0,0,1,.269-.616l.01,0-.115-.394-.014.005a.932.932,0,0,0-.53,1.108.969.969,0,0,0,.945.7c.031,0,.063,0,.1,0a2.807,2.807,0,0,0,1.362-.4.968.968,0,0,0,.441-1.126m-.426.519a.607.607,0,0,1-.353.246.519.519,0,0,1-.693-.324.465.465,0,0,1,.056-.389.626.626,0,0,1,.356-.249.717.717,0,0,1,.2-.029.543.543,0,0,1,.232.049.5.5,0,0,1,.2.7" transform="translate(-328.167 -135.117)" fill="#231815"/>
    <rect id="사각형_126" data-name="사각형 126" width="2.836" height="13.672" transform="translate(63.828 5.609)" fill="#231815"/>
    <rect id="사각형_127" data-name="사각형 127" width="2.431" height="17.215" transform="translate(84.17 5.711)" fill="#231815"/>
    <path id="패스_526" data-name="패스 526" d="M736.871,57.765H734.34v2.481h2.532V70.878h2.481V53.664h-2.481Z" transform="translate(-656.195 -47.953)" fill="#231815"/>
    <path id="패스_527" data-name="패스 527" d="M662.541,58.472h2.978v-2.43h-8.3v2.43h2.569c.077,1.3.02,5.76-3.48,6.278v2.43a5.911,5.911,0,0,0,4.861-2.582,5.911,5.911,0,0,0,4.861,2.582v-2.43c-3.5-.518-3.56-4.982-3.484-6.278" transform="translate(-586.462 -50.078)" fill="#231815"/>
    <path id="패스_528" data-name="패스 528" d="M852.33,64.921V58.947h5.063V56.516h-7.747v8.506s-.231,2.256,1.849,2.323v.006h8.076V64.921Z" transform="translate(-759.224 -50.502)" fill="#231815"/>
    <path id="패스_529" data-name="패스 529" d="M936.5,53.664v4.1h-1.519v-4.1H932.5v8.709h.785V64.8H932.5v6.075h2.481V60.246H936.5V70.878h2.431V53.664Z" transform="translate(-833.271 -47.953)" fill="#231815"/>
    <rect id="사각형_128" data-name="사각형 128" width="2.835" height="2.38" transform="translate(112.98 5.052)" fill="#231815"/>
    <path id="패스_530" data-name="패스 530" d="M1033.909,60.32v.456h-2.835V60.32h-3.646V62.5h10.127V60.32Z" transform="translate(-918.094 -53.901)" fill="#231815"/>
    <rect id="사각형_129" data-name="사각형 129" width="2.784" height="9.873" transform="translate(121.486 5.711)" fill="#231815"/>
    <rect id="사각형_130" data-name="사각형 130" width="2.684" height="2.481" transform="translate(123.865 9.559)" fill="#231815"/>
    <rect id="사각형_131" data-name="사각형 131" width="12.507" height="2.431" transform="translate(111.663 16.546)" fill="#231815"/>
    <rect id="사각형_132" data-name="사각형 132" width="2.886" height="5.265" transform="translate(121.284 18.065)" fill="#231815"/>
    <path id="패스_531" data-name="패스 531" d="M1227.464,57.468h-13.276V60h10.379v7a25.27,25.27,0,0,1-.2,3.477h2.531a9.083,9.083,0,0,0,.568-3.241V57.468Z" transform="translate(-1084.98 -51.353)" fill="#231815"/>
    <rect id="사각형_133" data-name="사각형 133" width="2.633" height="6.532" transform="translate(130.676 14.217)" fill="#231815"/>
    <rect id="사각형_134" data-name="사각형 134" width="2.633" height="6.532" transform="translate(135.081 14.217)" fill="#231815"/>
    <rect id="사각형_135" data-name="사각형 135" width="16.608" height="2.582" transform="translate(127.436 19.786)" fill="#231815"/>
    <path id="패스_532" data-name="패스 532" d="M1026.1,87.217c0-1.872,2.33-3.389,5.2-3.389s5.2,1.517,5.2,3.389-2.33,3.389-5.2,3.389-5.2-1.518-5.2-3.389m5.2,1.071c1.293,0,2.341-.479,2.341-1.071s-1.048-1.07-2.341-1.07-2.341.48-2.341,1.07,1.048,1.071,2.341,1.071" transform="translate(-916.912 -74.907)" fill="#231815"/>
    <path id="패스_533" data-name="패스 533" d="M480.038,55.86c0-2.557,2.48-4.63,5.538-4.63s5.539,2.073,5.539,4.63-2.48,4.63-5.539,4.63-5.538-2.073-5.538-4.63m5.538,1.852a2.215,2.215,0,0,0,2.45-1.852,2.546,2.546,0,0,0-4.9,0,2.215,2.215,0,0,0,2.449,1.852" transform="translate(-428.955 -45.778)" fill="#231815"/>
    <path id="패스_534" data-name="패스 534" d="M510.806,165.307v-2.683H507.97l0,3.422a1.83,1.83,0,0,0,1.855,1.743h10.7v-2.481Z" transform="translate(-453.914 -145.318)" fill="#231815"/>
    <path id="패스_535" data-name="패스 535" d="M1802.417,64.921V58.947h5.063V56.516h-7.747v8.506s-.231,2.256,1.849,2.323v.006h8.076V64.921Z" transform="translate(-1608.207 -50.502)" fill="#231815"/>
    <path id="패스_536" data-name="패스 536" d="M1886.592,53.664v4.1h-1.519v-4.1h-2.481v8.709h.785V64.8h-.785v6.075h2.481V60.246h1.519V70.878h2.431V53.664Z" transform="translate(-1682.255 -47.953)" fill="#231815"/>
    <rect id="사각형_136" data-name="사각형 136" width="2.784" height="17.346" transform="translate(183.833 5.711)" fill="#231815"/>
    <rect id="사각형_137" data-name="사각형 137" width="2.684" height="2.481" transform="translate(186.213 11.425)" fill="#231815"/>
    <path id="패스_537" data-name="패스 537" d="M1639.428,57.468h-9.136V60h6.239v5.784a25.267,25.267,0,0,1-.2,3.477h2.532a9.084,9.084,0,0,0,.568-3.241V57.468Z" transform="translate(-1456.804 -51.353)" fill="#231815"/>
    <rect id="사각형_138" data-name="사각형 138" width="2.633" height="6.532" transform="translate(175.33 12.064)" fill="#231815"/>
    <rect id="사각형_139" data-name="사각형 139" width="11.515" height="2.582" transform="translate(172.669 17.633)" fill="#231815"/>
    <rect id="사각형_140" data-name="사각형 140" width="2.835" height="2.38" transform="translate(213.709 5.052)" fill="#231815"/>
    <path id="패스_538" data-name="패스 538" d="M1980.478,60.32v.456h-2.835V60.32H1974V62.5h10.127V60.32Z" transform="translate(-1763.934 -53.901)" fill="#231815"/>
    <rect id="사각형_141" data-name="사각형 141" width="2.784" height="9.873" transform="translate(222.215 5.711)" fill="#231815"/>
    <rect id="사각형_142" data-name="사각형 142" width="2.684" height="2.481" transform="translate(224.595 9.559)" fill="#231815"/>
    <rect id="사각형_143" data-name="사각형 143" width="12.507" height="2.431" transform="translate(212.392 16.546)" fill="#231815"/>
    <rect id="사각형_144" data-name="사각형 144" width="2.886" height="5.265" transform="translate(222.013 18.065)" fill="#231815"/>
    <path id="패스_539" data-name="패스 539" d="M1972.676,87.217c0-1.872,2.33-3.389,5.2-3.389s5.2,1.517,5.2,3.389-2.33,3.389-5.2,3.389-5.2-1.518-5.2-3.389m5.2,1.071c1.293,0,2.341-.479,2.341-1.071s-1.048-1.07-2.341-1.07-2.342.48-2.342,1.07,1.049,1.071,2.342,1.071" transform="translate(-1762.753 -74.907)" fill="#231815"/>
    <rect id="사각형_145" data-name="사각형 145" width="2.836" height="17.51" transform="translate(166.242 5.609)" fill="#231815"/>
    <rect id="사각형_146" data-name="사각형 146" width="13.574" height="2.582" transform="translate(153.009 16.603)" fill="#231815"/>
    <path id="패스_540" data-name="패스 540" d="M1442.441,55.86c0-2.557,2.48-4.63,5.538-4.63s5.538,2.073,5.538,4.63-2.48,4.63-5.538,4.63-5.538-2.073-5.538-4.63m5.538,1.852a2.215,2.215,0,0,0,2.45-1.852,2.546,2.546,0,0,0-4.9,0,2.215,2.215,0,0,0,2.449,1.852" transform="translate(-1288.943 -45.778)" fill="#231815"/>
    <path id="패스_541" data-name="패스 541" d="M1199.866,300.285a1.533,1.533,0,0,0-1.737-1.4c-1.936,0-2.281,2-2.281,3.347,0,1.527.435,3.178,2.271,3.178a1.729,1.729,0,0,0,1.3-.483,1.6,1.6,0,0,0,.389-.853h1.226c-.167,1.594-1.626,2.257-3.005,2.257-2.828,0-3.375-2.515-3.375-4.088,0-1.707.658-4.257,3.519-4.257a2.582,2.582,0,0,1,2.882,2.3Z" transform="translate(-1067.526 -266.272)" fill="#231f20"/>
    <path id="패스_542" data-name="패스 542" d="M1263.677,320.884a2.651,2.651,0,0,1,2.738,2.954,2.738,2.738,0,0,1-2.827,3.021,2.647,2.647,0,0,1-2.75-2.943,2.721,2.721,0,0,1,2.839-3.032m-.067,5.189c.789,0,1.691-.573,1.691-2.269,0-1.4-.645-2.144-1.624-2.144-.669,0-1.747.426-1.747,2.189,0,1.157.488,2.224,1.68,2.224" transform="translate(-1126.666 -286.737)" fill="#231f20"/>
    <rect id="사각형_147" data-name="사각형 147" width="1.048" height="8.098" transform="translate(141.069 31.833)" fill="#231f20"/>
    <rect id="사각형_148" data-name="사각형 148" width="1.048" height="8.098" transform="translate(143.828 31.833)" fill="#231f20"/>
    <path id="패스_543" data-name="패스 543" d="M1374.571,324.041c-.021,1.168.456,2.033,1.6,2.033a1.219,1.219,0,0,0,1.314-1.168h1.046a1.918,1.918,0,0,1-.479,1.179,2.409,2.409,0,0,1-1.925.753c-1.758,0-2.593-1.1-2.593-2.886a2.927,2.927,0,0,1,1.1-2.65,2.67,2.67,0,0,1,1.525-.416c2.5,0,2.448,2.235,2.427,3.156Zm2.95-.741c.011-.539-.09-1.662-1.381-1.662a1.5,1.5,0,0,0-1.524,1.662Z" transform="translate(-1227.372 -286.738)" fill="#231f20"/>
    <path id="패스_544" data-name="패스 544" d="M1429.92,327.676c.044.629.31,1.1,1.3,1.1,1.458,0,1.481-1.068,1.481-2.595a1.93,1.93,0,0,1-1.837.954,2.138,2.138,0,0,1-1.714-.7,3.177,3.177,0,0,1-.636-2.077c0-1.909,1.113-2.841,2.482-2.841a1.947,1.947,0,0,1,1.76.853l.012-.775h1.011l-.021,1.022-.011,3.527a5.248,5.248,0,0,1-.268,2.336,2.449,2.449,0,0,1-2.327,1.011c-2.237,0-2.3-1.056-2.35-1.82Zm2.436-1.887a2.269,2.269,0,0,0,.379-1.618,1.881,1.881,0,0,0-.433-1.4,1.642,1.642,0,0,0-1.2-.494c-1.326,0-1.5,1.347-1.5,2.066,0,.865.256,2.01,1.534,2.01a1.4,1.4,0,0,0,1.224-.561" transform="translate(-1276.5 -287.306)" fill="#231f20"/>
    <path id="패스_545" data-name="패스 545" d="M1490.288,324.041c-.023,1.168.456,2.033,1.6,2.033a1.219,1.219,0,0,0,1.313-1.168h1.046a1.922,1.922,0,0,1-.478,1.179,2.415,2.415,0,0,1-1.927.753c-1.758,0-2.593-1.1-2.593-2.886a2.924,2.924,0,0,1,1.1-2.65,2.666,2.666,0,0,1,1.524-.416c2.5,0,2.448,2.235,2.427,3.156Zm2.949-.741c.012-.539-.088-1.662-1.381-1.662a1.505,1.505,0,0,0-1.524,1.662Z" transform="translate(-1330.773 -286.738)" fill="#231f20"/>
    <path id="패스_546" data-name="패스 546" d="M1572.906,320.884a2.65,2.65,0,0,1,2.737,2.954,2.738,2.738,0,0,1-2.827,3.021,2.647,2.647,0,0,1-2.748-2.943,2.72,2.72,0,0,1,2.838-3.032m-.067,5.189c.791,0,1.693-.573,1.693-2.269,0-1.4-.646-2.144-1.626-2.144-.668,0-1.747.426-1.747,2.189,0,1.157.49,2.224,1.681,2.224" transform="translate(-1402.989 -286.737)" fill="#231f20"/>
    <path id="패스_547" data-name="패스 547" d="M1630.74,298.7c-.176-.011-.4-.023-.611-.023-.846,0-.846.427-.846.82v.887h1.3v.764h-1.3v4.874h-1.036v-4.874h-1.1v-.764h1.1v-.639a2.246,2.246,0,0,1,.233-1.348,1.559,1.559,0,0,1,1.4-.617,5.944,5.944,0,0,1,.856.079Z" transform="translate(-1453.993 -266.088)" fill="#231f20"/>
    <path id="패스_548" data-name="패스 548" d="M1692.471,299.04h1.971l2.271,6.682,2.327-6.682h1.835v8.109h-1.09v-7.3l-2.637,7.3h-1.058l-2.537-7.256v7.256h-1.081Z" transform="translate(-1512.366 -267.218)" fill="#231f20"/>
    <path id="패스_549" data-name="패스 549" d="M1785.1,324.041c-.021,1.168.456,2.033,1.6,2.033a1.221,1.221,0,0,0,1.314-1.168h1.046a1.916,1.916,0,0,1-.479,1.179,2.409,2.409,0,0,1-1.925.753c-1.758,0-2.593-1.1-2.593-2.886a2.927,2.927,0,0,1,1.1-2.65,2.671,2.671,0,0,1,1.525-.416c2.5,0,2.448,2.235,2.426,3.156Zm2.949-.741c.012-.539-.088-1.662-1.379-1.662a1.5,1.5,0,0,0-1.524,1.662Z" transform="translate(-1594.211 -286.738)" fill="#231f20"/>
    <path id="패스_550" data-name="패스 550" d="M1843.419,299.14h1.046v7.2c0,.123.021.606.044.9h-1.046l-.023-.9a1.6,1.6,0,0,1-.5.594,2.521,2.521,0,0,1-1.381.417c-.745,0-2.4-.394-2.4-2.864,0-2.145,1.212-3.077,2.526-3.077a1.8,1.8,0,0,1,1.737.955Zm-.389,3.628a1.518,1.518,0,0,0-1.224-.573c-1.538,0-1.538,1.876-1.538,2.257,0,1,.257,2.157,1.538,2.157,1.646,0,1.646-1.83,1.646-2.268a2.429,2.429,0,0,0-.421-1.572" transform="translate(-1643.442 -267.307)" fill="#231f20"/>
    <path id="패스_551" data-name="패스 551" d="M1902.607,299.255h1.256v1.156h-1.256Zm.11,2.448h1.046v5.638h-1.046Z" transform="translate(-1700.141 -267.41)" fill="#231f20"/>
    <path id="패스_552" data-name="패스 552" d="M1928.634,322.839a1.107,1.107,0,0,0-1.112-1.179c-1.448,0-1.448,1.7-1.448,2.122,0,1.157.278,2.235,1.391,2.235a1.169,1.169,0,0,0,1.214-1.224h1.057a2.12,2.12,0,0,1-2.26,2.022,2.5,2.5,0,0,1-1.836-.731,3.065,3.065,0,0,1-.667-2.157c0-2.346,1.425-3.043,2.537-3.043a2.251,2.251,0,0,1,1.714.7,1.968,1.968,0,0,1,.469,1.258Z" transform="translate(-1720.127 -286.738)" fill="#231f20"/>
    <path id="패스_553" data-name="패스 553" d="M1977.664,299.255h1.258v1.156h-1.258Zm.111,2.448h1.046v5.638h-1.046Z" transform="translate(-1767.21 -267.41)" fill="#231f20"/>
    <path id="패스_554" data-name="패스 554" d="M2004.744,321.969l-.012-.652h1.048l.011.91a1.821,1.821,0,0,1,1.792-1.022,1.869,1.869,0,0,1,2.026,1.92v3.83h-1.069v-3.583a1.275,1.275,0,0,0-.3-.966,1.431,1.431,0,0,0-.992-.382,1.492,1.492,0,0,0-1.457,1.685v3.245h-1.046Z" transform="translate(-1791.398 -287.025)" fill="#231f20"/>
    <path id="패스_555" data-name="패스 555" d="M2062.532,324.041c-.021,1.168.456,2.033,1.6,2.033a1.221,1.221,0,0,0,1.314-1.168h1.046a1.927,1.927,0,0,1-.479,1.179,2.409,2.409,0,0,1-1.925.753c-1.76,0-2.594-1.1-2.594-2.886a2.928,2.928,0,0,1,1.1-2.65,2.668,2.668,0,0,1,1.524-.416c2.5,0,2.45,2.235,2.427,3.156Zm2.949-.741c.012-.539-.088-1.662-1.379-1.662a1.5,1.5,0,0,0-1.524,1.662Z" transform="translate(-1842.122 -286.738)" fill="#231f20"/>
    <rect id="사각형_149" data-name="사각형 149" width="1.113" height="8.109" transform="translate(52.608 31.822)" fill="#231f20"/>
    <path id="패스_556" data-name="패스 556" d="M520.5,321.969l-.012-.652h1.047l.011.91a1.821,1.821,0,0,1,1.791-1.022,1.87,1.87,0,0,1,2.026,1.92v3.83H524.3v-3.583a1.278,1.278,0,0,0-.3-.966,1.43,1.43,0,0,0-.992-.382,1.492,1.492,0,0,0-1.457,1.685v3.245H520.5Z" transform="translate(-465.104 -287.025)" fill="#231f20"/>
    <path id="패스_557" data-name="패스 557" d="M571.718,308.755c.824.034,1.024-.112,1.024-1.011V301.7h1.046v6.166c0,.539-.023,1.684-1.425,1.684a5.961,5.961,0,0,1-.646-.045Zm.924-9.5h1.269v1.168h-1.269Z" transform="translate(-510.879 -267.41)" fill="#231f20"/>
    <path id="패스_558" data-name="패스 558" d="M604.223,324.041c-.022,1.168.456,2.033,1.6,2.033a1.219,1.219,0,0,0,1.313-1.168h1.046a1.915,1.915,0,0,1-.478,1.179,2.408,2.408,0,0,1-1.925.753c-1.759,0-2.594-1.1-2.594-2.886a2.925,2.925,0,0,1,1.1-2.65,2.669,2.669,0,0,1,1.525-.416c2.5,0,2.448,2.235,2.427,3.156Zm2.949-.741c.011-.539-.089-1.662-1.38-1.662a1.506,1.506,0,0,0-1.525,1.662Z" transform="translate(-539 -286.738)" fill="#231f20"/>
    <path id="패스_559" data-name="패스 559" d="M689.5,299.04v5.02a2.288,2.288,0,0,0,.357,1.46,2.193,2.193,0,0,0,1.836.8,1.99,1.99,0,0,0,2.171-2.3V299.04h1.079v5a3.315,3.315,0,0,1-.656,2.156,3.279,3.279,0,0,1-2.594,1.123,3.441,3.441,0,0,1-2.839-1.291,3.246,3.246,0,0,1-.467-2.044V299.04Z" transform="translate(-615.136 -267.218)" fill="#231f20"/>
    <path id="패스_560" data-name="패스 560" d="M766.275,321.969l-.012-.652h1.047l.011.91a1.824,1.824,0,0,1,1.792-1.022,1.87,1.87,0,0,1,2.026,1.92v3.83h-1.069v-3.583a1.277,1.277,0,0,0-.3-.966,1.431,1.431,0,0,0-.991-.382,1.493,1.493,0,0,0-1.458,1.685v3.245h-1.045Z" transform="translate(-684.721 -287.025)" fill="#231f20"/>
    <path id="패스_561" data-name="패스 561" d="M825.857,299.255h1.258v1.156h-1.258Zm.111,2.448h1.046v5.638h-1.046Z" transform="translate(-737.973 -267.41)" fill="#231f20"/>
    <path id="패스_562" data-name="패스 562" d="M846.857,322.256h1.169l1.782,4.47,1.735-4.47H852.7l-2.449,5.638h-1.057Z" transform="translate(-756.739 -287.963)" fill="#231f20"/>
    <path id="패스_563" data-name="패스 563" d="M907.072,324.041c-.022,1.168.456,2.033,1.6,2.033a1.219,1.219,0,0,0,1.313-1.168h1.046a1.914,1.914,0,0,1-.478,1.179,2.412,2.412,0,0,1-1.927.753c-1.758,0-2.593-1.1-2.593-2.886a2.925,2.925,0,0,1,1.1-2.65,2.668,2.668,0,0,1,1.524-.416c2.505,0,2.449,2.235,2.427,3.156Zm2.949-.741c.012-.539-.088-1.662-1.38-1.662a1.505,1.505,0,0,0-1.524,1.662Z" transform="translate(-809.621 -286.738)" fill="#231f20"/>
    <path id="패스_564" data-name="패스 564" d="M964.839,322.94c0-.382-.023-.775-.056-1.146h1.057l.023,1.09a1.515,1.515,0,0,1,1.335-1.112,3.24,3.24,0,0,1,.724-.021v1.033a.846.846,0,0,0-.2-.046,2.4,2.4,0,0,0-.3-.011c-1.235,0-1.525.741-1.525,1.707v3h-1.057Z" transform="translate(-862.115 -287.501)" fill="#231f20"/>
    <path id="패스_565" data-name="패스 565" d="M1000.8,325.09c-.011.427.213,1.022,1.224,1.022a1.135,1.135,0,0,0,.979-.359.882.882,0,0,0,.18-.528c0-.55-.391-.652-1.226-.842-1.168-.269-2.147-.5-2.147-1.684,0-1.033.891-1.707,2.182-1.707a2.242,2.242,0,0,1,2.013.876,1.8,1.8,0,0,1,.145.82h-1.068c.033-.853-.7-.921-1.08-.921-.155,0-1.136,0-1.136.808,0,.517.5.64.791.719,1.548.37,1.881.461,2.216.774a1.405,1.405,0,0,1,.421,1.046,1.71,1.71,0,0,1-.756,1.426,3.118,3.118,0,0,1-1.659.382c-1.134,0-2.193-.472-2.181-1.83Z" transform="translate(-893.313 -286.833)" fill="#231f20"/>
    <path id="패스_566" data-name="패스 566" d="M1052.6,299.255h1.258v1.156H1052.6Zm.111,2.448h1.046v5.638h-1.046Z" transform="translate(-940.59 -267.41)" fill="#231f20"/>
    <path id="패스_567" data-name="패스 567" d="M1071.41,309.31h.99v-1.179l1.036-.338v1.516h1.247v.776h-1.247v3.38c0,.281,0,.753.747.753a2.38,2.38,0,0,0,.5-.055v.819a5.058,5.058,0,0,1-.868.068c-.958,0-1.414-.281-1.414-1.2v-3.763h-.99Z" transform="translate(-957.396 -275.04)" fill="#231f20"/>
    <path id="패스_568" data-name="패스 568" d="M1106.554,327.927l-.8,2.1h-1.08l.847-2.156-2.327-5.616h1.18l1.747,4.448,1.781-4.448h1.135Z" transform="translate(-985.797 -287.963)" fill="#231f20"/>
  </g>
</svg>
